<svg data-v-d3f97b9e="" xmlns="http://www.w3.org/2000/svg" viewBox="0 0 416 90"><!----><!----><!----><g data-v-d3f97b9e="" id="b296c1d5-3c90-43db-8916-2c7a92ee5fcb" fill="white" transform="matrix(7.194244472691296,0,0,7.194244472691296,105.65494309804802,-16.151078017876017)"><path d="M6.43 11.44L6.43 12.47L6.43 12.47Q5.54 12.67 4.51 12.67L4.51 12.67L4.51 12.67Q0.68 12.67 0.68 8.95L0.68 8.95L0.68 8.95Q0.68 5.50 4.51 5.50L4.51 5.50L4.51 5.50Q5.54 5.50 6.43 5.70L6.43 5.70L6.43 6.73L6.43 6.73Q5.54 6.52 4.44 6.52L4.44 6.52L4.44 6.52Q1.95 6.52 1.95 8.95L1.95 8.95L1.95 8.95Q1.95 11.65 4.44 11.65L4.44 11.65L4.44 11.65Q5.54 11.65 6.43 11.44L6.43 11.44ZM10.99 5.50L10.99 5.50L10.99 5.50Q14.05 5.50 14.05 8.52L14.05 8.52L14.05 8.52Q14.05 8.96 13.99 9.45L13.99 9.45L8.96 9.45L8.96 9.45Q8.96 11.65 11.53 11.65L11.53 11.65L11.53 11.65Q12.75 11.65 13.70 11.38L13.70 11.38L13.70 12.40L13.70 12.40Q12.75 12.67 11.39 12.67L11.39 12.67L11.39 12.67Q7.69 12.67 7.69 9.00L7.69 9.00L7.69 9.00Q7.69 5.50 10.99 5.50ZM8.96 8.39L8.96 8.39L12.84 8.39L12.84 8.39Q12.80 6.51 10.99 6.51L10.99 6.51L10.99 6.51Q9.08 6.51 8.96 8.39ZM17.02 12.67L15.76 12.67L15.76 5.50L16.61 5.50L16.84 6.41L16.84 6.41Q17.78 5.50 19.11 5.50L19.11 5.50L19.11 6.55L19.11 6.55Q17.82 6.55 17.02 7.46L17.02 7.46L17.02 12.67ZM20.37 10.74L20.37 4.33L21.16 4.33L21.44 5.50L23.38 5.50L23.38 6.52L21.64 6.52L21.64 10.64L21.64 10.64Q21.64 11.65 22.50 11.65L22.50 11.65L23.38 11.65L23.38 12.67L22.18 12.67L22.18 12.67Q20.37 12.67 20.37 10.74L20.37 10.74ZM27.95 5.50L27.95 5.50L27.95 5.50Q31.01 5.50 31.01 8.52L31.01 8.52L31.01 8.52Q31.01 8.96 30.95 9.45L30.95 9.45L25.91 9.45L25.91 9.45Q25.91 11.65 28.48 11.65L28.48 11.65L28.48 11.65Q29.70 11.65 30.65 11.38L30.65 11.38L30.65 12.40L30.65 12.40Q29.70 12.67 28.34 12.67L28.34 12.67L28.34 12.67Q24.64 12.67 24.64 9.00L24.64 9.00L24.64 9.00Q24.64 5.50 27.95 5.50ZM25.91 8.39L25.91 8.39L29.79 8.39L29.79 8.39Q29.75 6.51 27.95 6.51L27.95 6.51L27.95 6.51Q26.03 6.51 25.91 8.39ZM33.97 12.67L32.71 12.67L32.71 5.50L33.56 5.50L33.79 6.41L33.79 6.41Q34.73 5.50 36.06 5.50L36.06 5.50L36.06 6.55L36.06 6.55Q34.77 6.55 33.97 7.46L33.97 7.46L33.97 12.67ZM36.98 10.51L36.98 10.51L36.98 10.51Q36.98 8.30 39.89 8.30L39.89 8.30L39.89 8.30Q40.83 8.30 41.77 8.44L41.77 8.44L41.77 7.76L41.77 7.76Q41.77 6.52 39.83 6.52L39.83 6.52L39.83 6.52Q38.73 6.52 37.56 6.86L37.56 6.86L37.56 5.84L37.56 5.84Q38.73 5.50 39.83 5.50L39.83 5.50L39.83 5.50Q43.03 5.50 43.03 7.72L43.03 7.72L43.03 12.67L42.32 12.67L41.88 11.96L41.88 11.96Q40.81 12.67 39.55 12.67L39.55 12.67L39.55 12.67Q36.98 12.67 36.98 10.51ZM39.89 9.32L39.89 9.32L39.89 9.32Q38.25 9.32 38.25 10.49L38.25 10.49L38.25 10.49Q38.25 11.65 39.55 11.65L39.55 11.65L39.55 11.65Q40.86 11.65 41.77 10.95L41.77 10.95L41.77 9.46L41.77 9.46Q40.83 9.32 39.89 9.32Z"></path></g><!----><g data-v-d3f97b9e="" id="6607e839-0263-4020-98d8-752860711957" transform="matrix(1.0074213598968844,0,0,1.0074213598968844,-4.309118636206563,-5.037329438299615)" stroke="none" fill="white"><path d="M56.161 17.334c-9.858 0-18.839 3.718-25.651 9.813l-5.053-5.053-1.447-9.166-7.899-7.898 1.72 10.886a2.463 2.463 0 0 0-2.052 1.982L4.797 16.166l7.897 7.897 9.164 1.447 28.679 28.677a5.856 5.856 0 0 0-.243 1.663 5.867 5.867 0 1 0 3.537-5.383l-5.178-5.178a12.888 12.888 0 0 1 7.508-2.402c7.148 0 12.963 5.816 12.963 12.962 0 7.147-5.814 12.963-12.963 12.963-7.146 0-12.962-5.815-12.962-12.963 0-.363.021-.72.054-1.075l-6.52-6.521c-.926 2.36-1.47 4.909-1.47 7.596 0 11.542 9.356 20.901 20.898 20.901s20.898-9.359 20.898-20.901S67.703 34.95 56.161 34.95a20.754 20.754 0 0 0-13.163 4.684l-6.86-6.86c5.369-4.667 12.369-7.502 20.023-7.502 16.861 0 30.578 13.717 30.578 30.578 0 16.861-13.717 30.58-30.578 30.58-16.86 0-30.578-13.719-30.578-30.58a30.359 30.359 0 0 1 3.883-14.861l-5.792-5.792a38.3 38.3 0 0 0-6.028 20.653c0 21.271 17.244 38.517 38.514 38.517 21.272 0 38.517-17.245 38.517-38.517S77.434 17.334 56.161 17.334z"></path></g><!----></svg>